<mxfile host="app.diagrams.net" modified="2022-11-04T22:38:35.881Z" agent="5.0 (Windows NT 10.0; Win64; x64) AppleWebKit/537.36 (KHTML, like Gecko) Chrome/107.0.0.0 Safari/537.36" etag="e6VaPeMvyNHcEYA7PfXg" version="20.5.1" type="github">
  <diagram id="yZq5IONLJEsk0bZvG2Z2" name="Page-1">
    <mxGraphModel dx="1497" dy="836" grid="1" gridSize="10" guides="1" tooltips="1" connect="1" arrows="1" fold="1" page="1" pageScale="1" pageWidth="850" pageHeight="1100" math="0" shadow="0">
      <root>
        <mxCell id="0" />
        <mxCell id="1" parent="0" />
        <mxCell id="Zert8HyA5gWy37JvKC_g-1" value="VEHICLE" style="text;html=1;align=center;verticalAlign=middle;resizable=0;points=[];autosize=1;strokeColor=none;fillColor=none;" parent="1" vertex="1">
          <mxGeometry x="55" y="109" width="70" height="30" as="geometry" />
        </mxCell>
        <mxCell id="Zert8HyA5gWy37JvKC_g-2" value="&lt;u&gt;VIN&lt;/u&gt;" style="whiteSpace=wrap;html=1;" parent="1" vertex="1">
          <mxGeometry x="65" y="139" width="50" height="20" as="geometry" />
        </mxCell>
        <mxCell id="Zert8HyA5gWy37JvKC_g-3" value="Model" style="whiteSpace=wrap;html=1;" parent="1" vertex="1">
          <mxGeometry x="115" y="139" width="50" height="20" as="geometry" />
        </mxCell>
        <mxCell id="Zert8HyA5gWy37JvKC_g-4" value="Price" style="whiteSpace=wrap;html=1;" parent="1" vertex="1">
          <mxGeometry x="165" y="139" width="50" height="20" as="geometry" />
        </mxCell>
        <mxCell id="Zert8HyA5gWy37JvKC_g-5" value="&lt;u&gt;Sid&lt;/u&gt;" style="whiteSpace=wrap;html=1;" parent="1" vertex="1">
          <mxGeometry x="272.44" y="142" width="50" height="20" as="geometry" />
        </mxCell>
        <mxCell id="Zert8HyA5gWy37JvKC_g-7" value="SALESPERSON" style="text;html=1;align=center;verticalAlign=middle;resizable=0;points=[];autosize=1;strokeColor=none;fillColor=none;" parent="1" vertex="1">
          <mxGeometry x="272.44" y="112" width="110" height="30" as="geometry" />
        </mxCell>
        <mxCell id="Zert8HyA5gWy37JvKC_g-8" value="Name" style="whiteSpace=wrap;html=1;" parent="1" vertex="1">
          <mxGeometry x="322.44" y="142" width="50" height="20" as="geometry" />
        </mxCell>
        <mxCell id="Zert8HyA5gWy37JvKC_g-11" value="CAR" style="text;html=1;align=center;verticalAlign=middle;resizable=0;points=[];autosize=1;strokeColor=none;fillColor=none;" parent="1" vertex="1">
          <mxGeometry x="85" y="260" width="50" height="30" as="geometry" />
        </mxCell>
        <mxCell id="Zert8HyA5gWy37JvKC_g-12" value="TRUCK" style="text;html=1;align=center;verticalAlign=middle;resizable=0;points=[];autosize=1;strokeColor=none;fillColor=none;" parent="1" vertex="1">
          <mxGeometry x="85" y="320" width="60" height="30" as="geometry" />
        </mxCell>
        <mxCell id="HfXIFPsZ4pyppyQ5UBKi-8" style="edgeStyle=orthogonalEdgeStyle;rounded=0;orthogonalLoop=1;jettySize=auto;html=1;exitX=0;exitY=0.5;exitDx=0;exitDy=0;entryX=0.5;entryY=1;entryDx=0;entryDy=0;" parent="1" source="Zert8HyA5gWy37JvKC_g-13" target="Zert8HyA5gWy37JvKC_g-2" edge="1">
          <mxGeometry relative="1" as="geometry">
            <Array as="points">
              <mxPoint x="90" y="300" />
            </Array>
          </mxGeometry>
        </mxCell>
        <mxCell id="Zert8HyA5gWy37JvKC_g-13" value="&lt;u&gt;VIN&lt;/u&gt;" style="whiteSpace=wrap;html=1;" parent="1" vertex="1">
          <mxGeometry x="95" y="290" width="55" height="20" as="geometry" />
        </mxCell>
        <mxCell id="Zert8HyA5gWy37JvKC_g-14" value="Engine_size" style="whiteSpace=wrap;html=1;" parent="1" vertex="1">
          <mxGeometry x="150" y="290" width="75" height="20" as="geometry" />
        </mxCell>
        <mxCell id="HfXIFPsZ4pyppyQ5UBKi-2" style="edgeStyle=orthogonalEdgeStyle;rounded=0;orthogonalLoop=1;jettySize=auto;html=1;exitX=0;exitY=0.5;exitDx=0;exitDy=0;entryX=0.304;entryY=0.975;entryDx=0;entryDy=0;entryPerimeter=0;" parent="1" source="Zert8HyA5gWy37JvKC_g-15" target="Zert8HyA5gWy37JvKC_g-2" edge="1">
          <mxGeometry relative="1" as="geometry">
            <Array as="points">
              <mxPoint x="80" y="360" />
            </Array>
          </mxGeometry>
        </mxCell>
        <mxCell id="Zert8HyA5gWy37JvKC_g-15" value="&lt;u&gt;VIN&lt;/u&gt;" style="whiteSpace=wrap;html=1;" parent="1" vertex="1">
          <mxGeometry x="95" y="350" width="55" height="20" as="geometry" />
        </mxCell>
        <mxCell id="Zert8HyA5gWy37JvKC_g-16" value="&lt;font style=&quot;font-size: 13px;&quot;&gt;Tonnage&lt;/font&gt;" style="whiteSpace=wrap;html=1;" parent="1" vertex="1">
          <mxGeometry x="150" y="350" width="75" height="20" as="geometry" />
        </mxCell>
        <mxCell id="HfXIFPsZ4pyppyQ5UBKi-1" style="edgeStyle=orthogonalEdgeStyle;rounded=0;orthogonalLoop=1;jettySize=auto;html=1;exitX=0;exitY=0.5;exitDx=0;exitDy=0;entryX=0.104;entryY=0.975;entryDx=0;entryDy=0;entryPerimeter=0;" parent="1" source="Zert8HyA5gWy37JvKC_g-17" target="Zert8HyA5gWy37JvKC_g-2" edge="1">
          <mxGeometry relative="1" as="geometry" />
        </mxCell>
        <mxCell id="Zert8HyA5gWy37JvKC_g-17" value="&lt;u&gt;VIN&lt;/u&gt;" style="whiteSpace=wrap;html=1;" parent="1" vertex="1">
          <mxGeometry x="95" y="420" width="55" height="20" as="geometry" />
        </mxCell>
        <mxCell id="Zert8HyA5gWy37JvKC_g-18" value="No_seats" style="whiteSpace=wrap;html=1;" parent="1" vertex="1">
          <mxGeometry x="150" y="420" width="65" height="20" as="geometry" />
        </mxCell>
        <mxCell id="Zert8HyA5gWy37JvKC_g-19" value="SUV" style="text;html=1;align=center;verticalAlign=middle;resizable=0;points=[];autosize=1;strokeColor=none;fillColor=none;" parent="1" vertex="1">
          <mxGeometry x="85" y="390" width="50" height="30" as="geometry" />
        </mxCell>
        <mxCell id="Zert8HyA5gWy37JvKC_g-24" value="Date" style="whiteSpace=wrap;html=1;" parent="1" vertex="1">
          <mxGeometry x="422.44" y="313" width="50" height="20" as="geometry" />
        </mxCell>
        <mxCell id="Zert8HyA5gWy37JvKC_g-25" value="CUSTOMER" style="text;html=1;align=center;verticalAlign=middle;resizable=0;points=[];autosize=1;strokeColor=none;fillColor=none;" parent="1" vertex="1">
          <mxGeometry x="272.44" y="203" width="90" height="30" as="geometry" />
        </mxCell>
        <mxCell id="Zert8HyA5gWy37JvKC_g-26" value="&lt;u&gt;Ssn&lt;/u&gt;" style="whiteSpace=wrap;html=1;" parent="1" vertex="1">
          <mxGeometry x="272.44" y="238" width="50" height="20" as="geometry" />
        </mxCell>
        <mxCell id="Zert8HyA5gWy37JvKC_g-27" value="Name" style="whiteSpace=wrap;html=1;" parent="1" vertex="1">
          <mxGeometry x="322.44" y="238" width="50" height="20" as="geometry" />
        </mxCell>
        <mxCell id="Zert8HyA5gWy37JvKC_g-28" value="State" style="whiteSpace=wrap;html=1;" parent="1" vertex="1">
          <mxGeometry x="472.44" y="238" width="50" height="20" as="geometry" />
        </mxCell>
        <mxCell id="Zert8HyA5gWy37JvKC_g-29" value="Street" style="whiteSpace=wrap;html=1;" parent="1" vertex="1">
          <mxGeometry x="372.44" y="238" width="50" height="20" as="geometry" />
        </mxCell>
        <mxCell id="Zert8HyA5gWy37JvKC_g-30" value="City" style="whiteSpace=wrap;html=1;" parent="1" vertex="1">
          <mxGeometry x="422.44" y="238" width="50" height="20" as="geometry" />
        </mxCell>
        <mxCell id="Zert8HyA5gWy37JvKC_g-31" value="Sale" style="text;html=1;align=center;verticalAlign=middle;resizable=0;points=[];autosize=1;strokeColor=none;fillColor=none;" parent="1" vertex="1">
          <mxGeometry x="272.44" y="283" width="50" height="30" as="geometry" />
        </mxCell>
        <mxCell id="JeJ-1QsV46Ygb5Qe9RLI-1" style="edgeStyle=orthogonalEdgeStyle;rounded=0;orthogonalLoop=1;jettySize=auto;html=1;exitX=0;exitY=0.5;exitDx=0;exitDy=0;entryX=0.75;entryY=1;entryDx=0;entryDy=0;" parent="1" source="Zert8HyA5gWy37JvKC_g-32" target="Zert8HyA5gWy37JvKC_g-2" edge="1">
          <mxGeometry relative="1" as="geometry">
            <Array as="points">
              <mxPoint x="250" y="323" />
              <mxPoint x="250" y="230" />
              <mxPoint x="102" y="230" />
            </Array>
          </mxGeometry>
        </mxCell>
        <mxCell id="Zert8HyA5gWy37JvKC_g-32" value="&lt;u&gt;Vin&lt;/u&gt;" style="whiteSpace=wrap;html=1;" parent="1" vertex="1">
          <mxGeometry x="272.44" y="313" width="50" height="20" as="geometry" />
        </mxCell>
        <mxCell id="HfXIFPsZ4pyppyQ5UBKi-7" style="edgeStyle=orthogonalEdgeStyle;rounded=0;orthogonalLoop=1;jettySize=auto;html=1;exitX=0.5;exitY=1;exitDx=0;exitDy=0;entryX=0.75;entryY=1;entryDx=0;entryDy=0;" parent="1" source="Zert8HyA5gWy37JvKC_g-33" target="Zert8HyA5gWy37JvKC_g-5" edge="1">
          <mxGeometry relative="1" as="geometry">
            <Array as="points">
              <mxPoint x="347.44" y="353" />
              <mxPoint x="542.44" y="353" />
              <mxPoint x="542.44" y="193" />
              <mxPoint x="310.44" y="193" />
            </Array>
          </mxGeometry>
        </mxCell>
        <mxCell id="Zert8HyA5gWy37JvKC_g-33" value="&lt;u&gt;Sid&lt;/u&gt;" style="whiteSpace=wrap;html=1;" parent="1" vertex="1">
          <mxGeometry x="322.44" y="313" width="50" height="20" as="geometry" />
        </mxCell>
        <mxCell id="HfXIFPsZ4pyppyQ5UBKi-5" style="edgeStyle=orthogonalEdgeStyle;rounded=0;orthogonalLoop=1;jettySize=auto;html=1;exitX=0.5;exitY=0;exitDx=0;exitDy=0;entryX=0.5;entryY=1;entryDx=0;entryDy=0;" parent="1" source="Zert8HyA5gWy37JvKC_g-34" target="Zert8HyA5gWy37JvKC_g-26" edge="1">
          <mxGeometry relative="1" as="geometry" />
        </mxCell>
        <mxCell id="Zert8HyA5gWy37JvKC_g-34" value="&lt;u&gt;Ssn&lt;/u&gt;" style="whiteSpace=wrap;html=1;" parent="1" vertex="1">
          <mxGeometry x="372.44" y="313" width="50" height="20" as="geometry" />
        </mxCell>
        <mxCell id="--6bmYJcJ-hPVQL4Pmtl-1" value="&lt;span style=&quot;font-size: 19px;&quot;&gt;8A&lt;/span&gt;" style="text;html=1;align=center;verticalAlign=middle;resizable=0;points=[];autosize=1;strokeColor=none;fillColor=none;" parent="1" vertex="1">
          <mxGeometry x="65" y="69" width="50" height="40" as="geometry" />
        </mxCell>
        <mxCell id="--6bmYJcJ-hPVQL4Pmtl-2" value="VEHICLE" style="text;html=1;align=center;verticalAlign=middle;resizable=0;points=[];autosize=1;strokeColor=none;fillColor=none;" parent="1" vertex="1">
          <mxGeometry x="22" y="570" width="70" height="30" as="geometry" />
        </mxCell>
        <mxCell id="--6bmYJcJ-hPVQL4Pmtl-3" value="&lt;u&gt;VIN&lt;/u&gt;" style="whiteSpace=wrap;html=1;" parent="1" vertex="1">
          <mxGeometry x="32" y="600" width="50" height="20" as="geometry" />
        </mxCell>
        <mxCell id="--6bmYJcJ-hPVQL4Pmtl-4" value="Model" style="whiteSpace=wrap;html=1;" parent="1" vertex="1">
          <mxGeometry x="82" y="600" width="50" height="20" as="geometry" />
        </mxCell>
        <mxCell id="--6bmYJcJ-hPVQL4Pmtl-5" value="Price" style="whiteSpace=wrap;html=1;" parent="1" vertex="1">
          <mxGeometry x="407" y="600" width="50" height="20" as="geometry" />
        </mxCell>
        <mxCell id="--6bmYJcJ-hPVQL4Pmtl-6" value="&lt;u&gt;Sid&lt;/u&gt;" style="whiteSpace=wrap;html=1;" parent="1" vertex="1">
          <mxGeometry x="492.5" y="600" width="50" height="20" as="geometry" />
        </mxCell>
        <mxCell id="--6bmYJcJ-hPVQL4Pmtl-7" value="SALESPERSON" style="text;html=1;align=center;verticalAlign=middle;resizable=0;points=[];autosize=1;strokeColor=none;fillColor=none;" parent="1" vertex="1">
          <mxGeometry x="492.5" y="570" width="110" height="30" as="geometry" />
        </mxCell>
        <mxCell id="--6bmYJcJ-hPVQL4Pmtl-8" value="Name" style="whiteSpace=wrap;html=1;" parent="1" vertex="1">
          <mxGeometry x="542.5" y="600" width="50" height="20" as="geometry" />
        </mxCell>
        <mxCell id="--6bmYJcJ-hPVQL4Pmtl-16" value="Date" style="whiteSpace=wrap;html=1;" parent="1" vertex="1">
          <mxGeometry x="580" y="771" width="50" height="20" as="geometry" />
        </mxCell>
        <mxCell id="--6bmYJcJ-hPVQL4Pmtl-17" value="CUSTOMER" style="text;html=1;align=center;verticalAlign=middle;resizable=0;points=[];autosize=1;strokeColor=none;fillColor=none;" parent="1" vertex="1">
          <mxGeometry x="430" y="661" width="90" height="30" as="geometry" />
        </mxCell>
        <mxCell id="--6bmYJcJ-hPVQL4Pmtl-18" value="&lt;u&gt;Ssn&lt;/u&gt;" style="whiteSpace=wrap;html=1;" parent="1" vertex="1">
          <mxGeometry x="430" y="696" width="50" height="20" as="geometry" />
        </mxCell>
        <mxCell id="--6bmYJcJ-hPVQL4Pmtl-19" value="Name" style="whiteSpace=wrap;html=1;" parent="1" vertex="1">
          <mxGeometry x="480" y="696" width="50" height="20" as="geometry" />
        </mxCell>
        <mxCell id="--6bmYJcJ-hPVQL4Pmtl-20" value="State" style="whiteSpace=wrap;html=1;" parent="1" vertex="1">
          <mxGeometry x="630" y="696" width="50" height="20" as="geometry" />
        </mxCell>
        <mxCell id="--6bmYJcJ-hPVQL4Pmtl-21" value="Street" style="whiteSpace=wrap;html=1;" parent="1" vertex="1">
          <mxGeometry x="530" y="696" width="50" height="20" as="geometry" />
        </mxCell>
        <mxCell id="--6bmYJcJ-hPVQL4Pmtl-22" value="City" style="whiteSpace=wrap;html=1;" parent="1" vertex="1">
          <mxGeometry x="580" y="696" width="50" height="20" as="geometry" />
        </mxCell>
        <mxCell id="--6bmYJcJ-hPVQL4Pmtl-23" value="Sale" style="text;html=1;align=center;verticalAlign=middle;resizable=0;points=[];autosize=1;strokeColor=none;fillColor=none;" parent="1" vertex="1">
          <mxGeometry x="430" y="741" width="50" height="30" as="geometry" />
        </mxCell>
        <mxCell id="--6bmYJcJ-hPVQL4Pmtl-24" style="edgeStyle=orthogonalEdgeStyle;rounded=0;orthogonalLoop=1;jettySize=auto;html=1;exitX=0;exitY=0.75;exitDx=0;exitDy=0;entryX=0.843;entryY=0.989;entryDx=0;entryDy=0;entryPerimeter=0;" parent="1" source="--6bmYJcJ-hPVQL4Pmtl-25" target="--6bmYJcJ-hPVQL4Pmtl-3" edge="1">
          <mxGeometry relative="1" as="geometry">
            <mxPoint x="195" y="641" as="targetPoint" />
            <Array as="points">
              <mxPoint x="74" y="786" />
            </Array>
          </mxGeometry>
        </mxCell>
        <mxCell id="--6bmYJcJ-hPVQL4Pmtl-25" value="&lt;u&gt;Vin&lt;/u&gt;" style="whiteSpace=wrap;html=1;" parent="1" vertex="1">
          <mxGeometry x="430" y="771" width="50" height="20" as="geometry" />
        </mxCell>
        <mxCell id="--6bmYJcJ-hPVQL4Pmtl-37" style="edgeStyle=orthogonalEdgeStyle;rounded=0;orthogonalLoop=1;jettySize=auto;html=1;exitX=0.5;exitY=1;exitDx=0;exitDy=0;entryX=0.75;entryY=1;entryDx=0;entryDy=0;fontSize=19;" parent="1" source="--6bmYJcJ-hPVQL4Pmtl-27" target="--6bmYJcJ-hPVQL4Pmtl-6" edge="1">
          <mxGeometry relative="1" as="geometry">
            <Array as="points">
              <mxPoint x="505" y="810" />
              <mxPoint x="710" y="810" />
              <mxPoint x="710" y="650" />
              <mxPoint x="530" y="650" />
            </Array>
          </mxGeometry>
        </mxCell>
        <mxCell id="--6bmYJcJ-hPVQL4Pmtl-27" value="&lt;u&gt;Sid&lt;/u&gt;" style="whiteSpace=wrap;html=1;" parent="1" vertex="1">
          <mxGeometry x="480" y="771" width="50" height="20" as="geometry" />
        </mxCell>
        <mxCell id="--6bmYJcJ-hPVQL4Pmtl-28" style="edgeStyle=orthogonalEdgeStyle;rounded=0;orthogonalLoop=1;jettySize=auto;html=1;exitX=0.5;exitY=0;exitDx=0;exitDy=0;entryX=0.5;entryY=1;entryDx=0;entryDy=0;" parent="1" source="--6bmYJcJ-hPVQL4Pmtl-29" target="--6bmYJcJ-hPVQL4Pmtl-18" edge="1">
          <mxGeometry relative="1" as="geometry" />
        </mxCell>
        <mxCell id="--6bmYJcJ-hPVQL4Pmtl-29" value="&lt;u&gt;Ssn&lt;/u&gt;" style="whiteSpace=wrap;html=1;" parent="1" vertex="1">
          <mxGeometry x="530" y="771" width="50" height="20" as="geometry" />
        </mxCell>
        <mxCell id="--6bmYJcJ-hPVQL4Pmtl-32" value="Engine_size" style="whiteSpace=wrap;html=1;" parent="1" vertex="1">
          <mxGeometry x="212" y="600" width="75" height="20" as="geometry" />
        </mxCell>
        <mxCell id="--6bmYJcJ-hPVQL4Pmtl-33" value="Vehicle_type" style="whiteSpace=wrap;html=1;" parent="1" vertex="1">
          <mxGeometry x="132" y="600" width="80" height="20" as="geometry" />
        </mxCell>
        <mxCell id="--6bmYJcJ-hPVQL4Pmtl-34" value="Tonnage" style="whiteSpace=wrap;html=1;" parent="1" vertex="1">
          <mxGeometry x="287" y="600" width="55" height="20" as="geometry" />
        </mxCell>
        <mxCell id="--6bmYJcJ-hPVQL4Pmtl-35" value="No_seats" style="whiteSpace=wrap;html=1;" parent="1" vertex="1">
          <mxGeometry x="342" y="600" width="65" height="20" as="geometry" />
        </mxCell>
        <mxCell id="--6bmYJcJ-hPVQL4Pmtl-38" value="&lt;span style=&quot;font-size: 19px;&quot;&gt;8C&lt;/span&gt;" style="text;html=1;align=center;verticalAlign=middle;resizable=0;points=[];autosize=1;strokeColor=none;fillColor=none;" parent="1" vertex="1">
          <mxGeometry x="45" y="520" width="50" height="40" as="geometry" />
        </mxCell>
        <mxCell id="xm13Yv91gHQqJXN2-Y_b-1" value="VEHICLE" style="text;html=1;align=center;verticalAlign=middle;resizable=0;points=[];autosize=1;strokeColor=none;fillColor=none;" parent="1" vertex="1">
          <mxGeometry x="850" y="109" width="70" height="30" as="geometry" />
        </mxCell>
        <mxCell id="xm13Yv91gHQqJXN2-Y_b-2" value="&lt;u&gt;VIN&lt;/u&gt;" style="whiteSpace=wrap;html=1;" parent="1" vertex="1">
          <mxGeometry x="860" y="139" width="50" height="20" as="geometry" />
        </mxCell>
        <mxCell id="xm13Yv91gHQqJXN2-Y_b-3" value="Model" style="whiteSpace=wrap;html=1;" parent="1" vertex="1">
          <mxGeometry x="910" y="139" width="50" height="20" as="geometry" />
        </mxCell>
        <mxCell id="xm13Yv91gHQqJXN2-Y_b-4" value="Price" style="whiteSpace=wrap;html=1;" parent="1" vertex="1">
          <mxGeometry x="960" y="139" width="50" height="20" as="geometry" />
        </mxCell>
        <mxCell id="xm13Yv91gHQqJXN2-Y_b-5" value="&lt;u&gt;Sid&lt;/u&gt;" style="whiteSpace=wrap;html=1;" parent="1" vertex="1">
          <mxGeometry x="1460" y="154" width="50" height="20" as="geometry" />
        </mxCell>
        <mxCell id="xm13Yv91gHQqJXN2-Y_b-6" value="SALESPERSON" style="text;html=1;align=center;verticalAlign=middle;resizable=0;points=[];autosize=1;strokeColor=none;fillColor=none;" parent="1" vertex="1">
          <mxGeometry x="1460" y="124" width="110" height="30" as="geometry" />
        </mxCell>
        <mxCell id="xm13Yv91gHQqJXN2-Y_b-7" value="Name" style="whiteSpace=wrap;html=1;" parent="1" vertex="1">
          <mxGeometry x="1510" y="154" width="50" height="20" as="geometry" />
        </mxCell>
        <mxCell id="xm13Yv91gHQqJXN2-Y_b-13" value="C_flag" style="whiteSpace=wrap;html=1;" parent="1" vertex="1">
          <mxGeometry x="1010" y="139" width="55" height="20" as="geometry" />
        </mxCell>
        <mxCell id="xm13Yv91gHQqJXN2-Y_b-14" value="Engine_size" style="whiteSpace=wrap;html=1;" parent="1" vertex="1">
          <mxGeometry x="1065" y="139" width="75" height="20" as="geometry" />
        </mxCell>
        <mxCell id="xm13Yv91gHQqJXN2-Y_b-17" value="Tonnage" style="whiteSpace=wrap;html=1;" parent="1" vertex="1">
          <mxGeometry x="1195" y="139" width="55" height="20" as="geometry" />
        </mxCell>
        <mxCell id="xm13Yv91gHQqJXN2-Y_b-20" value="No_seats" style="whiteSpace=wrap;html=1;" parent="1" vertex="1">
          <mxGeometry x="1305" y="139" width="65" height="20" as="geometry" />
        </mxCell>
        <mxCell id="xm13Yv91gHQqJXN2-Y_b-22" value="Date" style="whiteSpace=wrap;html=1;" parent="1" vertex="1">
          <mxGeometry x="1340" y="375.5" width="50" height="20" as="geometry" />
        </mxCell>
        <mxCell id="xm13Yv91gHQqJXN2-Y_b-23" value="CUSTOMER" style="text;html=1;align=center;verticalAlign=middle;resizable=0;points=[];autosize=1;strokeColor=none;fillColor=none;" parent="1" vertex="1">
          <mxGeometry x="1190" y="200" width="90" height="30" as="geometry" />
        </mxCell>
        <mxCell id="xm13Yv91gHQqJXN2-Y_b-24" value="&lt;u&gt;Ssn&lt;/u&gt;" style="whiteSpace=wrap;html=1;" parent="1" vertex="1">
          <mxGeometry x="1190" y="235" width="50" height="20" as="geometry" />
        </mxCell>
        <mxCell id="xm13Yv91gHQqJXN2-Y_b-25" value="Name" style="whiteSpace=wrap;html=1;" parent="1" vertex="1">
          <mxGeometry x="1240" y="235" width="50" height="20" as="geometry" />
        </mxCell>
        <mxCell id="xm13Yv91gHQqJXN2-Y_b-26" value="State" style="whiteSpace=wrap;html=1;" parent="1" vertex="1">
          <mxGeometry x="1390" y="235" width="50" height="20" as="geometry" />
        </mxCell>
        <mxCell id="xm13Yv91gHQqJXN2-Y_b-27" value="Street" style="whiteSpace=wrap;html=1;" parent="1" vertex="1">
          <mxGeometry x="1290" y="235" width="50" height="20" as="geometry" />
        </mxCell>
        <mxCell id="xm13Yv91gHQqJXN2-Y_b-28" value="City" style="whiteSpace=wrap;html=1;" parent="1" vertex="1">
          <mxGeometry x="1340" y="235" width="50" height="20" as="geometry" />
        </mxCell>
        <mxCell id="xm13Yv91gHQqJXN2-Y_b-29" value="Sale" style="text;html=1;align=center;verticalAlign=middle;resizable=0;points=[];autosize=1;strokeColor=none;fillColor=none;" parent="1" vertex="1">
          <mxGeometry x="1190" y="345.5" width="50" height="30" as="geometry" />
        </mxCell>
        <mxCell id="xm13Yv91gHQqJXN2-Y_b-94" style="edgeStyle=orthogonalEdgeStyle;rounded=0;orthogonalLoop=1;jettySize=auto;html=1;exitX=0;exitY=0.5;exitDx=0;exitDy=0;entryX=0.5;entryY=1;entryDx=0;entryDy=0;" parent="1" source="xm13Yv91gHQqJXN2-Y_b-31" target="xm13Yv91gHQqJXN2-Y_b-2" edge="1">
          <mxGeometry relative="1" as="geometry" />
        </mxCell>
        <mxCell id="xm13Yv91gHQqJXN2-Y_b-31" value="&lt;u&gt;Vin&lt;/u&gt;" style="whiteSpace=wrap;html=1;" parent="1" vertex="1">
          <mxGeometry x="1190" y="375.5" width="50" height="20" as="geometry" />
        </mxCell>
        <mxCell id="xm13Yv91gHQqJXN2-Y_b-32" style="edgeStyle=orthogonalEdgeStyle;rounded=0;orthogonalLoop=1;jettySize=auto;html=1;exitX=0.5;exitY=1;exitDx=0;exitDy=0;entryX=0.75;entryY=1;entryDx=0;entryDy=0;" parent="1" source="xm13Yv91gHQqJXN2-Y_b-33" target="xm13Yv91gHQqJXN2-Y_b-5" edge="1">
          <mxGeometry relative="1" as="geometry">
            <Array as="points">
              <mxPoint x="1265" y="416" />
              <mxPoint x="1498" y="416" />
              <mxPoint x="1498" y="174" />
            </Array>
          </mxGeometry>
        </mxCell>
        <mxCell id="xm13Yv91gHQqJXN2-Y_b-33" value="&lt;u&gt;Sid&lt;/u&gt;" style="whiteSpace=wrap;html=1;" parent="1" vertex="1">
          <mxGeometry x="1240" y="375.5" width="50" height="20" as="geometry" />
        </mxCell>
        <mxCell id="xm13Yv91gHQqJXN2-Y_b-34" style="edgeStyle=orthogonalEdgeStyle;rounded=0;orthogonalLoop=1;jettySize=auto;html=1;exitX=0.5;exitY=0;exitDx=0;exitDy=0;entryX=0.5;entryY=1;entryDx=0;entryDy=0;" parent="1" source="xm13Yv91gHQqJXN2-Y_b-35" target="xm13Yv91gHQqJXN2-Y_b-24" edge="1">
          <mxGeometry relative="1" as="geometry" />
        </mxCell>
        <mxCell id="xm13Yv91gHQqJXN2-Y_b-35" value="&lt;u&gt;Ssn&lt;/u&gt;" style="whiteSpace=wrap;html=1;" parent="1" vertex="1">
          <mxGeometry x="1290" y="375.5" width="50" height="20" as="geometry" />
        </mxCell>
        <mxCell id="xm13Yv91gHQqJXN2-Y_b-38" value="&lt;span style=&quot;font-size: 19px;&quot;&gt;8D&lt;/span&gt;" style="text;html=1;align=center;verticalAlign=middle;resizable=0;points=[];autosize=1;strokeColor=none;fillColor=none;" parent="1" vertex="1">
          <mxGeometry x="860" y="69" width="50" height="40" as="geometry" />
        </mxCell>
        <mxCell id="xm13Yv91gHQqJXN2-Y_b-43" value="&lt;u&gt;Sid&lt;/u&gt;" style="whiteSpace=wrap;html=1;" parent="1" vertex="1">
          <mxGeometry x="1240" y="589.97" width="50" height="20" as="geometry" />
        </mxCell>
        <mxCell id="xm13Yv91gHQqJXN2-Y_b-44" value="SALESPERSON" style="text;html=1;align=center;verticalAlign=middle;resizable=0;points=[];autosize=1;strokeColor=none;fillColor=none;" parent="1" vertex="1">
          <mxGeometry x="1240" y="559.97" width="110" height="30" as="geometry" />
        </mxCell>
        <mxCell id="xm13Yv91gHQqJXN2-Y_b-45" value="Name" style="whiteSpace=wrap;html=1;" parent="1" vertex="1">
          <mxGeometry x="1290" y="589.97" width="50" height="20" as="geometry" />
        </mxCell>
        <mxCell id="xm13Yv91gHQqJXN2-Y_b-48" value="CAR" style="text;html=1;align=center;verticalAlign=middle;resizable=0;points=[];autosize=1;strokeColor=none;fillColor=none;" parent="1" vertex="1">
          <mxGeometry x="870" y="650.97" width="50" height="30" as="geometry" />
        </mxCell>
        <mxCell id="xm13Yv91gHQqJXN2-Y_b-49" value="TRUCK" style="text;html=1;align=center;verticalAlign=middle;resizable=0;points=[];autosize=1;strokeColor=none;fillColor=none;" parent="1" vertex="1">
          <mxGeometry x="880" y="720" width="60" height="30" as="geometry" />
        </mxCell>
        <mxCell id="xm13Yv91gHQqJXN2-Y_b-52" value="Engine_size" style="whiteSpace=wrap;html=1;" parent="1" vertex="1">
          <mxGeometry x="1030" y="680.97" width="75" height="20" as="geometry" />
        </mxCell>
        <mxCell id="xm13Yv91gHQqJXN2-Y_b-55" value="Tonnage" style="whiteSpace=wrap;html=1;" parent="1" vertex="1">
          <mxGeometry x="1030" y="751" width="55" height="20" as="geometry" />
        </mxCell>
        <mxCell id="xm13Yv91gHQqJXN2-Y_b-58" value="No_seats" style="whiteSpace=wrap;html=1;" parent="1" vertex="1">
          <mxGeometry x="1030" y="821" width="65" height="20" as="geometry" />
        </mxCell>
        <mxCell id="xm13Yv91gHQqJXN2-Y_b-59" value="SUV" style="text;html=1;align=center;verticalAlign=middle;resizable=0;points=[];autosize=1;strokeColor=none;fillColor=none;" parent="1" vertex="1">
          <mxGeometry x="880" y="791" width="50" height="30" as="geometry" />
        </mxCell>
        <mxCell id="xm13Yv91gHQqJXN2-Y_b-60" value="Date" style="whiteSpace=wrap;html=1;" parent="1" vertex="1">
          <mxGeometry x="1390" y="760.97" width="50" height="20" as="geometry" />
        </mxCell>
        <mxCell id="xm13Yv91gHQqJXN2-Y_b-61" value="CUSTOMER" style="text;html=1;align=center;verticalAlign=middle;resizable=0;points=[];autosize=1;strokeColor=none;fillColor=none;" parent="1" vertex="1">
          <mxGeometry x="1240" y="650.97" width="90" height="30" as="geometry" />
        </mxCell>
        <mxCell id="xm13Yv91gHQqJXN2-Y_b-62" value="&lt;u&gt;Ssn&lt;/u&gt;" style="whiteSpace=wrap;html=1;" parent="1" vertex="1">
          <mxGeometry x="1240" y="685.97" width="50" height="20" as="geometry" />
        </mxCell>
        <mxCell id="xm13Yv91gHQqJXN2-Y_b-63" value="Name" style="whiteSpace=wrap;html=1;" parent="1" vertex="1">
          <mxGeometry x="1290" y="685.97" width="50" height="20" as="geometry" />
        </mxCell>
        <mxCell id="xm13Yv91gHQqJXN2-Y_b-64" value="State" style="whiteSpace=wrap;html=1;" parent="1" vertex="1">
          <mxGeometry x="1440" y="685.97" width="50" height="20" as="geometry" />
        </mxCell>
        <mxCell id="xm13Yv91gHQqJXN2-Y_b-65" value="Street" style="whiteSpace=wrap;html=1;" parent="1" vertex="1">
          <mxGeometry x="1340" y="685.97" width="50" height="20" as="geometry" />
        </mxCell>
        <mxCell id="xm13Yv91gHQqJXN2-Y_b-66" value="City" style="whiteSpace=wrap;html=1;" parent="1" vertex="1">
          <mxGeometry x="1390" y="685.97" width="50" height="20" as="geometry" />
        </mxCell>
        <mxCell id="xm13Yv91gHQqJXN2-Y_b-67" value="Sale" style="text;html=1;align=center;verticalAlign=middle;resizable=0;points=[];autosize=1;strokeColor=none;fillColor=none;" parent="1" vertex="1">
          <mxGeometry x="1240" y="730.97" width="50" height="30" as="geometry" />
        </mxCell>
        <mxCell id="xm13Yv91gHQqJXN2-Y_b-87" style="edgeStyle=orthogonalEdgeStyle;rounded=0;orthogonalLoop=1;jettySize=auto;html=1;exitX=0;exitY=0.25;exitDx=0;exitDy=0;entryX=0.5;entryY=1;entryDx=0;entryDy=0;" parent="1" source="xm13Yv91gHQqJXN2-Y_b-69" target="xm13Yv91gHQqJXN2-Y_b-78" edge="1">
          <mxGeometry relative="1" as="geometry">
            <Array as="points">
              <mxPoint x="1190" y="766" />
              <mxPoint x="1190" y="720" />
              <mxPoint x="905" y="720" />
            </Array>
          </mxGeometry>
        </mxCell>
        <mxCell id="xm13Yv91gHQqJXN2-Y_b-88" style="edgeStyle=orthogonalEdgeStyle;rounded=0;orthogonalLoop=1;jettySize=auto;html=1;exitX=0;exitY=0.75;exitDx=0;exitDy=0;entryX=0.5;entryY=1;entryDx=0;entryDy=0;" parent="1" source="xm13Yv91gHQqJXN2-Y_b-69" target="xm13Yv91gHQqJXN2-Y_b-81" edge="1">
          <mxGeometry relative="1" as="geometry">
            <Array as="points">
              <mxPoint x="1160" y="776" />
              <mxPoint x="1160" y="791" />
              <mxPoint x="905" y="791" />
            </Array>
          </mxGeometry>
        </mxCell>
        <mxCell id="xm13Yv91gHQqJXN2-Y_b-89" style="edgeStyle=orthogonalEdgeStyle;rounded=0;orthogonalLoop=1;jettySize=auto;html=1;exitX=0.25;exitY=1;exitDx=0;exitDy=0;entryX=0.5;entryY=1;entryDx=0;entryDy=0;" parent="1" source="xm13Yv91gHQqJXN2-Y_b-69" target="xm13Yv91gHQqJXN2-Y_b-84" edge="1">
          <mxGeometry relative="1" as="geometry" />
        </mxCell>
        <mxCell id="xm13Yv91gHQqJXN2-Y_b-69" value="&lt;u&gt;Vin&lt;/u&gt;" style="whiteSpace=wrap;html=1;" parent="1" vertex="1">
          <mxGeometry x="1240" y="760.97" width="50" height="20" as="geometry" />
        </mxCell>
        <mxCell id="xm13Yv91gHQqJXN2-Y_b-70" style="edgeStyle=orthogonalEdgeStyle;rounded=0;orthogonalLoop=1;jettySize=auto;html=1;exitX=0.5;exitY=1;exitDx=0;exitDy=0;entryX=0.75;entryY=1;entryDx=0;entryDy=0;" parent="1" source="xm13Yv91gHQqJXN2-Y_b-71" target="xm13Yv91gHQqJXN2-Y_b-43" edge="1">
          <mxGeometry relative="1" as="geometry">
            <Array as="points">
              <mxPoint x="1315" y="800.97" />
              <mxPoint x="1510" y="800.97" />
              <mxPoint x="1510" y="640.97" />
              <mxPoint x="1278" y="640.97" />
            </Array>
          </mxGeometry>
        </mxCell>
        <mxCell id="xm13Yv91gHQqJXN2-Y_b-71" value="&lt;u&gt;Sid&lt;/u&gt;" style="whiteSpace=wrap;html=1;" parent="1" vertex="1">
          <mxGeometry x="1290" y="760.97" width="50" height="20" as="geometry" />
        </mxCell>
        <mxCell id="xm13Yv91gHQqJXN2-Y_b-72" style="edgeStyle=orthogonalEdgeStyle;rounded=0;orthogonalLoop=1;jettySize=auto;html=1;exitX=0.5;exitY=0;exitDx=0;exitDy=0;entryX=0.5;entryY=1;entryDx=0;entryDy=0;" parent="1" source="xm13Yv91gHQqJXN2-Y_b-73" target="xm13Yv91gHQqJXN2-Y_b-62" edge="1">
          <mxGeometry relative="1" as="geometry" />
        </mxCell>
        <mxCell id="xm13Yv91gHQqJXN2-Y_b-73" value="&lt;u&gt;Ssn&lt;/u&gt;" style="whiteSpace=wrap;html=1;" parent="1" vertex="1">
          <mxGeometry x="1340" y="760.97" width="50" height="20" as="geometry" />
        </mxCell>
        <mxCell id="xm13Yv91gHQqJXN2-Y_b-76" value="&lt;span style=&quot;font-size: 19px;&quot;&gt;8B&lt;/span&gt;" style="text;html=1;align=center;verticalAlign=middle;resizable=0;points=[];autosize=1;strokeColor=none;fillColor=none;" parent="1" vertex="1">
          <mxGeometry x="870" y="520" width="50" height="40" as="geometry" />
        </mxCell>
        <mxCell id="xm13Yv91gHQqJXN2-Y_b-78" value="&lt;u&gt;VIN&lt;/u&gt;" style="whiteSpace=wrap;html=1;" parent="1" vertex="1">
          <mxGeometry x="880" y="680.97" width="50" height="20" as="geometry" />
        </mxCell>
        <mxCell id="xm13Yv91gHQqJXN2-Y_b-79" value="Model" style="whiteSpace=wrap;html=1;" parent="1" vertex="1">
          <mxGeometry x="930" y="680.97" width="50" height="20" as="geometry" />
        </mxCell>
        <mxCell id="xm13Yv91gHQqJXN2-Y_b-80" value="Price" style="whiteSpace=wrap;html=1;" parent="1" vertex="1">
          <mxGeometry x="980" y="680.97" width="50" height="20" as="geometry" />
        </mxCell>
        <mxCell id="xm13Yv91gHQqJXN2-Y_b-81" value="&lt;u&gt;VIN&lt;/u&gt;" style="whiteSpace=wrap;html=1;" parent="1" vertex="1">
          <mxGeometry x="880" y="751" width="50" height="20" as="geometry" />
        </mxCell>
        <mxCell id="xm13Yv91gHQqJXN2-Y_b-82" value="Model" style="whiteSpace=wrap;html=1;" parent="1" vertex="1">
          <mxGeometry x="930" y="751" width="50" height="20" as="geometry" />
        </mxCell>
        <mxCell id="xm13Yv91gHQqJXN2-Y_b-83" value="Price" style="whiteSpace=wrap;html=1;" parent="1" vertex="1">
          <mxGeometry x="980" y="751" width="50" height="20" as="geometry" />
        </mxCell>
        <mxCell id="xm13Yv91gHQqJXN2-Y_b-84" value="&lt;u&gt;VIN&lt;/u&gt;" style="whiteSpace=wrap;html=1;" parent="1" vertex="1">
          <mxGeometry x="880" y="821" width="50" height="20" as="geometry" />
        </mxCell>
        <mxCell id="xm13Yv91gHQqJXN2-Y_b-85" value="Model" style="whiteSpace=wrap;html=1;" parent="1" vertex="1">
          <mxGeometry x="930" y="821" width="50" height="20" as="geometry" />
        </mxCell>
        <mxCell id="xm13Yv91gHQqJXN2-Y_b-86" value="Price" style="whiteSpace=wrap;html=1;" parent="1" vertex="1">
          <mxGeometry x="980" y="821" width="50" height="20" as="geometry" />
        </mxCell>
        <mxCell id="xm13Yv91gHQqJXN2-Y_b-90" value="T_flag" style="whiteSpace=wrap;html=1;" parent="1" vertex="1">
          <mxGeometry x="1140" y="139" width="55" height="20" as="geometry" />
        </mxCell>
        <mxCell id="xm13Yv91gHQqJXN2-Y_b-91" value="S_flag" style="whiteSpace=wrap;html=1;" parent="1" vertex="1">
          <mxGeometry x="1250" y="139" width="55" height="20" as="geometry" />
        </mxCell>
      </root>
    </mxGraphModel>
  </diagram>
</mxfile>
